<svg viewBox="0 0 129 128" xmlns="http://www.w3.org/2000/svg"><path d="m95.6 127.6h-72.6a4.2 4.2 0 0 1 -4.2-4.2v-90.9a4.2 4.2 0 0 1 4.2-4.3h72.6a4.3 4.3 0 0 1 4.3 4.3v90.9a4.2 4.2 0 0 1 -4.3 4.2z" fill="#fde09b"/><g stroke="#cbd1d9"><path d="m84.9 118.7h-71.1a4.3 4.3 0 0 1 -4.3-4.3v-90.9a4.3 4.3 0 0 1 4.3-4.3h71.1a4.4 4.4 0 0 1 4.3 4.3v90.9a4.3 4.3 0 0 1 -4.3 4.3z" fill="#fff" stroke-miterlimit="10" stroke-width=".47"/><path d="m24.7 118.7v-99.5" fill="none" stroke-miterlimit="10" stroke-width=".47"/><path d="m24.8 36.5 64.4.2" fill="none" stroke-miterlimit="10" stroke-width=".47"/><path d="m24.7 48h64.4" fill="none" stroke-miterlimit="10" stroke-width=".47"/><path d="m24.7 59.4 64.4.2" fill="none" stroke-miterlimit="10" stroke-width=".47"/><path d="m24.6 71.6 64.4.2" fill="none" stroke-miterlimit="10" stroke-width=".47"/><path d="m24.6 83.9 64.4.2" fill="none" stroke-miterlimit="10" stroke-width=".47"/><path d="m24.6 96 64.4.2" fill="none" stroke-miterlimit="10" stroke-width=".47"/><path d="m24.5 108.1h64.4" fill="none" stroke-miterlimit="10" stroke-width=".47"/></g><path d="m75.3 12.2v10.7a2.2 2.2 0 0 1 -2.2 2.3h-37.4a2.3 2.3 0 0 1 -2.3-2.3v-10.7a2.3 2.3 0 0 1 2.3-2.3h10c.2-5.5 4.2-9.9 9-9.9s8.8 4.4 9 9.9h9.4a2.2 2.2 0 0 1 2.2 2.3z" fill="#cbd1d9"/><path d="m14.9 45.8h-13.2a1.7 1.7 0 0 1 0-3.4h13.2a1.7 1.7 0 0 1 0 3.4z" fill="#cbd1d9"/><path d="m14.9 57.6h-13.2a1.7 1.7 0 0 1 -1.7-1.7 1.8 1.8 0 0 1 1.7-1.7h13.2a1.7 1.7 0 0 1 1.7 1.7 1.6 1.6 0 0 1 -1.7 1.7z" fill="#cbd1d9"/><path d="m14.9 69.4h-13.2a1.7 1.7 0 0 1 -1.7-1.6 1.7 1.7 0 0 1 1.7-1.7h13.2a1.6 1.6 0 0 1 1.7 1.7 1.6 1.6 0 0 1 -1.7 1.6z" fill="#cbd1d9"/><path d="m14.9 81.3h-13.2a1.7 1.7 0 1 1 0-3.4h13.2a1.7 1.7 0 0 1 0 3.4z" fill="#cbd1d9"/><path d="m14.9 93.1h-13.2a1.7 1.7 0 1 1 0-3.4h13.2a1.7 1.7 0 0 1 0 3.4z" fill="#cbd1d9"/><path d="m14.9 104.9h-13.2a1.7 1.7 0 0 1 -1.7-1.6 1.7 1.7 0 0 1 1.7-1.7h13.2a1.6 1.6 0 0 1 1.7 1.7 1.6 1.6 0 0 1 -1.7 1.6z" fill="#cbd1d9"/><path d="m54.7 13.9a3.9 3.9 0 0 0 3.9-4 3.9 3.9 0 1 0 -7.8 0 3.9 3.9 0 0 0 3.9 4z" fill="#fff" stroke="#cbd1d9" stroke-miterlimit="10" stroke-width=".47"/><path d="m71.8 23.4h-34.8a1 1 0 0 1 -1-.9v-.5a1.1 1.1 0 0 1 1-1h34.8a1.1 1.1 0 0 1 1 1v.5a1 1 0 0 1 -1 .9z" fill="#fff" stroke="#cbd1d9" stroke-miterlimit="10" stroke-width=".47"/><path d="m123.3 57.5h-.2l-11.6-19.4.5-.2a9.1 9.1 0 0 1 12.6 3.4l2.1 3.6a9.3 9.3 0 0 1 -3.4 12.6z" fill="#fff" stroke="#cbd1d9" stroke-miterlimit="10" stroke-width=".47"/><path d="m119.2 59.9-.4.2-37.2 21.5h-.2l-11.2-19.5 37.1-21.4.4-.3z" fill="#adf5ec" stroke="#cbd1d9" stroke-miterlimit="10" stroke-width=".47"/><path d="m111.7 48.4-36.5 21.1a.8.8 0 0 1 -.9-.3l-1.3-2.2a.7.7 0 0 1 .2-.9l36.6-21a.5.5 0 0 1 .8.2l1.3 2.2a.7.7 0 0 1 -.2.9z" fill="#fff" stroke="#cbd1d9" stroke-miterlimit="10" stroke-width=".47"/><path d="m81.5 81.6h-11l-5.4-10.7 5.1-8.9z" fill="#fff" stroke="#cbd1d9" stroke-linejoin="round" stroke-width=".47"/><path d="m70.5 81.5h-5.2a3.6 3.6 0 0 1 -3.1-5.5l2.9-5z" fill="#cbd1d9" stroke="#cbd1d9" stroke-linejoin="round" stroke-width=".47"/><path d="m74.7 69.8 37.6-21.7" fill="none" stroke="#cbd1d9" stroke-miterlimit="10" stroke-width=".47"/><path d="m123.1 57.6-3.9 2.3-11.5-19.6 3.8-2.2z" fill="#fff" stroke="#cbd1d9" stroke-miterlimit="10" stroke-width=".47"/><path d="m109.2 44.3-36.2 21 .6 1.2 36.3-21z" fill="#fff" stroke="#fff" stroke-linejoin="round" stroke-width="1.07"/></svg>