<svg fill="none" viewBox="0 0 120 144" xmlns="http://www.w3.org/2000/svg"><path d="m94.8559 67.2126v73.7664c0 1.519-1.2296 2.748-2.7428 2.748h-77.6446c-1.5183 0-2.7478-1.229-2.7478-2.748v-73.7664c0-1.5182 1.2295-2.7478 2.7478-2.7478h77.6446c1.5132 0 2.7428 1.2296 2.7428 2.7478z" fill="#efcb82"/><path d="m24.9785 24.5098 25.5115-6.6504" stroke="#cbd1d9" stroke-miterlimit="10" stroke-width=".497786"/><path d="m26.3828 29.8848 25.5115-6.6504" stroke="#cbd1d9" stroke-miterlimit="10" stroke-width=".497786"/><path d="m27.7852 35.2637 25.5115-6.6504" stroke="#cbd1d9" stroke-miterlimit="10" stroke-width=".497786"/><path d="m43.7109 36.8835c2.7279-.7119 4.6494-1.2146 7.3822-1.9265" stroke="#cbd1d9" stroke-miterlimit="10" stroke-width=".497786"/><path d="m29.1855 40.6469c3.8878-1.0154 7.7755-2.0259 11.6632-3.0414" stroke="#cbd1d9" stroke-miterlimit="10" stroke-width=".497786"/><path d="m52.875 34.514c.4679-.1245.4679-.1245 1.4087-.3734" stroke="#cbd1d9" stroke-miterlimit="10" stroke-width=".497786"/><path d="m57.3545 43.7178-25.9546 6.9591c-2.917.7815-5.8937-1.0155-6.6554-4.0122l-8.6813-34.2526c-.7616-2.99669.9856-6.05807 3.9026-6.8396l17.0292-4.56469h.005c5.8739 3.22565 11.7477 6.45628 17.6216 9.68689l6.6355 26.1835c.7616 2.9967-.9856 6.0581-3.9026 6.8396z" stroke="#cbd1d9" stroke-linejoin="round" stroke-miterlimit="10" stroke-width=".497786"/><path d="m54.6207 10.6919c-2.1255.667-4.2511 1.3341-6.3766 2.0011-.2937.1145-3.5393 1.3291-6.516-.6571-2.5238-1.6875-2.9618-4.42034-3.0266-4.85839-.5674-2.06083-1.1349-4.1117-1.7074-6.17253v-.00498s.005-.000003.005.00498c5.8739 3.22565 11.7477 6.45627 17.6216 9.68692z" fill="#cbd1d9"/><g stroke-miterlimit="10"><path d="m94.8559 131.715h-12.0016v-51.9088c0-3.2257-3.0067-5.839-6.7152-5.839h-37.08l-3.5841-2.5587c-.6222-.443-1.3689-.6819-2.1355-.6819h-21.6188v63.6764h71.1336 12.0016z" fill="#fff" stroke="#fff" stroke-width=".497786"/><path d="m92.0955 94.3297-29.5435-17.308c-3.3203-1.9464-4.3557-6.2522-2.3197-9.6272l23.2913-38.5336c2.036-3.375 6.3767-4.5298 9.6969-2.5835l19.3835 11.3545.005.005c2.335 8.2134 4.66 16.4319 6.989 24.6503l-17.806 29.454c-2.0405 3.38-6.3812 4.5348-9.6965 2.5885z" fill="#fff" stroke="#cbd1d9" stroke-linejoin="round" stroke-width=".497786"/><path d="m119.593 62.297c-2.509-1.3291-5.013-2.6631-7.522-3.9922-.368-.1643-4.376-2.021-5.237-6.4961-.726-3.7981 1.359-6.6405 1.698-7.0935 1.359-2.3595 2.713-4.709 4.067-7.0735l.005-.005s.005.005 0 .01c2.329 8.2134 4.659 16.4319 6.989 24.6503z" stroke="#cbd1d9" stroke-linejoin="round" stroke-width=".497786"/><path d="m110.777 65.473-10.757-6.2074" stroke="#cbd1d9" stroke-linejoin="round" stroke-width=".497786"/><path d="m119.11 73.0961-6.013-.0697-13.8886-.1742-7.1134-11.927-2.9817-4.9977c.9557-1.13 2.6084-1.4536 3.9375-.682l6.9692 4.0221 10.757 6.2074 6.914 3.9922c1.289.7418 1.842 2.265 1.419 3.6289z" fill="#adf5ec" stroke="#cbd1d9" stroke-width=".497786"/><path d="m119.109 73.0944c-.07.2141-.159.4281-.279.6322l-9.049 15.6852c-.867 1.4884-2.773 2.0011-4.266 1.1399l-24.6358-14.2267c-1.4934-.8611-2.0061-2.7676-1.1449-4.261l9.0547-15.6802c.0946-.1643.2041-.3186.3235-.458l2.9818 4.9978 7.1133 11.9269 13.8884.1742z" fill="#adf5ec" stroke="#cbd1d9" stroke-linejoin="round" stroke-width=".497786"/><path d="m105.4 72.9258 2.121 7.7206" stroke="#cbd1d9" stroke-linejoin="round" stroke-width=".497786"/><path d="m88.5605 69.6351 7.8551-1.5531" stroke="#cbd1d9" stroke-linejoin="round" stroke-width=".497786"/><path d="m90.2871 56.0664 9.448 15.7848" stroke="#fff" stroke-linecap="round" stroke-linejoin="round" stroke-width="1.49336"/><path d="m118.238 72.2404-18.3982-.3185" stroke="#fff" stroke-linecap="round" stroke-linejoin="round" stroke-width="1.49336"/></g><path d="m73.9051 76.2361h-35.98l-3.4745-2.8573c-.6023-.4978-1.3291-.7616-2.0708-.7616h-22.49992c-1.00553 0-1.96127.4878-2.63328 1.339l-1.797 2.2799h-2.95186c-.95077 0-1.722349.7716-1.722349 1.7223v59.2516c0 3.599 2.917039 6.521 6.521009 6.521h73.1346v-60.9739c-.0049-3.599-2.9269-6.521-6.5259-6.521z" fill="#fde09b"/></svg>