<svg viewBox="0 0 126 50" xmlns="http://www.w3.org/2000/svg"><path d="M0 22.642v-8.707L8.436 4h7.249l7.302 9.46L30.342 4h7.249L46 13.963v8.707L23.013 46zm3.242-7.368v5.889l19.771 20.093 19.718-20.093v-5.916l-6.643-7.814h-4.191l-8.91 11.414L14.13 7.433H9.912z" fill-rule="evenodd"/><path d="M62.64 36.5l5.408-21.92h7.072l5.44 21.92h-3.584l-1.184-4.704h-8.416L66.192 36.5zm8.16-18.944L68.08 28.66h7.008L72.4 17.556zM83.684 36.5V14.58h6.176l4.896 17.12 4.896-17.12h6.208V36.5h-3.584V18.516h-.48l-5.184 17.088H92.9l-5.184-17.088h-.48V36.5zm34.548.352c-3.2 0-5.376-.885-6.528-2.656-1.131-1.77-1.696-4.683-1.696-8.736s.576-6.933 1.728-8.64c1.152-1.728 3.317-2.592 6.496-2.592 1.898 0 3.989.267 6.272.8l-.128 2.88c-1.92-.341-3.84-.512-5.76-.512s-3.222.576-3.904 1.728c-.683 1.13-1.024 3.275-1.024 6.432 0 3.136.33 5.28.992 6.432.661 1.13 1.952 1.696 3.872 1.696s3.861-.16 5.824-.48l.096 2.944c-2.198.47-4.278.704-6.24.704z"/></svg>